# xmcd CD database file
#
# Track frame offsets:
#	150
#	15611
#	39905
#	54207
#
# Disc length: 922 seconds
#
# Revision: 0
# Processed by: cddbd v1.5.1PL0 Copyright (c) Steve Scherf et al.
# Submitted via: CDex 1.51
#
DISCID=21039804
DTITLE=Gersey - Eyes Are Wide Tonight
DYEAR=2005
DGENRE=Rock
TTITLE0=The Girl Is My Gun
TTITLE1=Small Change
TTITLE2=Woken and Waitin'
TTITLE3=Los Baez
EXTD=YEAR: 2005
EXTT0=
EXTT1=
EXTT2=
EXTT3=
PLAYORDER=
